<svg width="644" height="664" viewBox="0 0 644 664" fill="none" xmlns="http://www.w3.org/2000/svg">
<ellipse cx="322" cy="332" rx="322" ry="332" fill="black"/>
<path d="M309.754 364.666C310.34 365.545 310.193 368.475 309.314 373.455C308.729 378.436 307.703 383.855 306.238 389.715C305.066 395.574 303.748 401.141 302.283 406.414C301.111 411.395 300.086 414.324 299.207 415.203H294.812C293.934 415.203 293.055 415.057 292.176 414.764C293.641 428.826 294.812 440.105 295.691 448.602C296.57 457.098 297.01 461.785 297.01 462.664C297.01 464.715 295.984 467.645 293.934 471.453C292.176 475.262 290.125 478.777 287.781 482C285.438 485.223 282.947 487.713 280.311 489.471C277.967 491.521 276.355 491.668 275.477 489.91C274.012 487.273 270.936 479.363 266.248 466.18C261.561 452.996 256.287 434.979 250.428 412.127C244.568 411.541 238.416 410.955 231.971 410.369C225.818 409.783 219.52 409.197 213.074 408.611C206.629 408.025 200.184 407.293 193.738 406.414C187.586 405.242 181.58 404.217 175.721 403.338C172.791 416.229 169.861 428.387 166.932 439.812C164.295 451.238 161.658 461.199 159.021 469.695C156.678 478.191 154.627 484.93 152.869 489.91C151.111 494.891 149.793 497.381 148.914 497.381C146.57 497.381 144.227 495.916 141.883 492.986C139.539 490.057 137.342 486.541 135.291 482.439C133.533 478.338 132.068 474.09 130.896 469.695C129.725 465.301 129.139 461.639 129.139 458.709C129.725 451.971 130.457 444.939 131.336 437.615C132.508 430.291 133.387 423.553 133.973 417.4C134.852 410.076 135.73 402.898 136.609 395.867H134.852C133.68 395.281 132.068 393.963 130.018 391.912C127.967 389.861 125.916 387.811 123.865 385.76C121.814 383.416 120.057 381.219 118.592 379.168C117.127 376.824 116.395 375.066 116.395 373.895C116.395 373.309 118.445 372.723 122.547 372.137C126.941 371.551 132.654 370.965 139.686 370.379C142.029 352.801 144.52 334.49 147.156 315.447C149.793 296.404 152.43 278.533 155.066 261.834C157.703 245.135 160.193 230.633 162.537 218.328C165.174 205.73 167.371 197.088 169.129 192.4C172.059 184.49 177.186 177.459 184.51 171.307C191.834 164.861 199.451 159.588 207.361 155.486C215.564 151.092 223.328 147.723 230.652 145.379C237.977 143.035 243.396 141.863 246.912 141.863C248.377 141.863 249.988 145.232 251.746 151.971C253.797 158.416 255.848 167.205 257.898 178.338C260.242 189.471 262.586 202.508 264.93 217.449C267.566 232.098 270.057 247.625 272.4 264.031C274.744 280.438 276.941 297.283 278.992 314.568C281.336 331.561 283.533 347.82 285.584 363.348C300.232 363.348 308.289 363.787 309.754 364.666ZM184.07 367.303C193.445 366.717 202.82 366.277 212.195 365.984C221.57 365.691 230.799 365.252 239.881 364.666C237.537 353.24 234.9 340.496 231.971 326.434C229.627 314.422 226.844 300.359 223.621 284.246C220.398 268.133 217.176 250.408 213.953 231.072C210.438 248.357 206.922 265.203 203.406 281.609C199.891 297.723 196.668 312.225 193.738 325.115C190.516 340.057 187.293 354.119 184.07 367.303ZM420.936 256.121C421.229 257 421.229 259.49 420.936 263.592C420.643 267.4 420.057 271.795 419.178 276.775C418.592 281.463 417.859 285.857 416.98 289.959C416.102 293.768 415.369 296.111 414.783 296.99C411.854 297.283 408.924 297.43 405.994 297.43C403.064 297.137 400.281 296.99 397.645 296.99H388.416C388.123 316.326 387.684 335.516 387.098 354.559C386.512 373.602 385.779 390.74 384.9 405.975C384.021 420.916 382.996 433.074 381.824 442.449C380.945 451.824 380.066 456.658 379.188 456.951C377.137 457.244 374.793 456.365 372.156 454.314C369.52 452.264 366.883 449.773 364.246 446.844C361.902 443.621 359.705 440.398 357.654 437.176C355.896 433.66 354.871 430.584 354.578 427.947C353.113 410.076 351.795 393.084 350.623 376.971C349.451 360.564 348.572 346.062 347.986 333.465C346.814 318.816 346.082 305.193 345.789 292.596C342.566 292.303 339.344 291.863 336.121 291.277C333.191 290.691 330.115 290.105 326.893 289.52C323.963 288.934 320.887 288.348 317.664 287.762C317.078 287.176 316.346 285.857 315.467 283.807C314.588 281.463 313.709 278.973 312.83 276.336C312.244 273.699 311.658 271.209 311.072 268.865C310.486 266.229 310.193 264.324 310.193 263.152C310.193 262.273 313.416 261.395 319.861 260.516C326.6 259.637 334.803 258.904 344.471 258.318C343.885 242.791 343.445 229.314 343.152 217.889C343.152 206.17 343.592 198.26 344.471 194.158C345.35 188.592 347.693 183.318 351.502 178.338C355.604 173.064 359.852 168.523 364.246 164.715C368.934 160.906 373.182 158.123 376.99 156.365C381.092 154.314 383.729 153.729 384.9 154.607C385.779 155.193 386.512 158.27 387.098 163.836C387.684 169.109 388.123 176.287 388.416 185.369C388.709 194.451 388.855 205.145 388.855 217.449C388.855 229.461 388.855 242.205 388.855 255.682C397.645 255.096 405.115 254.949 411.268 255.242C417.42 255.242 420.643 255.535 420.936 256.121ZM481.141 293.035C481.727 294.5 482.02 299.188 482.02 307.098C482.312 314.715 482.312 324.09 482.02 335.223C482.02 346.062 481.727 357.781 481.141 370.379C480.555 382.684 479.822 394.402 478.943 405.535C478.357 416.375 477.625 425.75 476.746 433.66C475.867 441.277 474.988 445.818 474.109 447.283C471.473 451.385 467.518 454.021 462.244 455.193C456.971 456.072 453.162 456.219 450.818 455.633C449.646 455.633 448.328 452.264 446.863 445.525C445.691 438.787 444.52 430.291 443.348 420.037C442.176 409.783 441.15 398.65 440.271 386.639C439.393 374.627 438.66 363.201 438.074 352.361C437.488 341.229 437.195 331.561 437.195 323.357C437.195 315.154 437.488 309.881 438.074 307.537C438.953 303.729 441.443 300.359 445.545 297.43C449.939 294.5 454.48 292.303 459.168 290.838C464.148 289.373 468.689 288.787 472.791 289.08C477.186 289.08 479.969 290.398 481.141 293.035ZM483.338 221.844C484.51 224.188 484.949 227.41 484.656 231.512C484.656 235.613 484.217 239.861 483.338 244.256C482.459 248.65 481.287 252.898 479.822 257C478.357 261.102 476.893 264.324 475.428 266.668C472.498 270.77 468.104 273.406 462.244 274.578C456.678 275.457 452.576 275.604 449.939 275.018C447.889 274.725 445.838 273.406 443.787 271.062C441.736 268.426 439.979 265.35 438.514 261.834C437.049 258.025 436.023 253.924 435.438 249.529C434.852 245.135 434.998 241.033 435.877 237.225C436.756 233.416 439.539 230.047 444.227 227.117C448.914 223.895 453.895 221.551 459.168 220.086C464.441 218.328 469.422 217.596 474.109 217.889C478.797 217.889 481.873 219.207 483.338 221.844Z" fill="white"/>
</svg>
