<svg width="169" height="401" viewBox="0 0 169 401" fill="none" xmlns="http://www.w3.org/2000/svg">
<g clip-path="url(#clip0_47_5)">
<path d="M56 25.2356L74.5676 6.65568C77.6912 3.53085 82.7565 3.5298 85.8813 6.65335C85.8821 6.65413 85.8829 6.65491 85.8837 6.65568L135.316 56.1131C138.315 59.1135 140 63.1822 140 67.4245V395" stroke="#434040" stroke-width="8"/>
<path d="M166 394H113C111.343 394 110 395.343 110 397V398C110 399.657 111.343 401 113 401H166C167.657 401 169 399.657 169 398V397C169 395.343 167.657 394 166 394Z" fill="#4C4E50"/>
<path fill-rule="evenodd" clip-rule="evenodd" d="M67.1678 14.3345C80.0551 27.2218 80.0551 48.1163 67.1678 61.0036L47.3688 80.8026L0.699739 34.1335L20.4987 14.3345C33.386 1.44722 54.2805 1.44722 67.1678 14.3345Z" fill="#505050"/>
<path d="M20.228 61.5269C33.1153 74.4142 45.6203 82.8036 48.1587 80.2652C50.6971 77.7268 42.3077 65.2218 29.4204 52.3345C16.5331 39.4472 4.02809 31.0578 1.48968 33.5962C-1.04873 36.1346 7.34071 48.6396 20.228 61.5269Z" fill="#817F7F"/>
</g>
<defs>
<clipPath id="clip0_47_5">
<rect width="169" height="401" fill="white"/>
</clipPath>
</defs>
</svg>
