<svg width="336" height="502" viewBox="0 0 336 502" fill="none" xmlns="http://www.w3.org/2000/svg">
<path fill-rule="evenodd" clip-rule="evenodd" d="M132.997 55.6322C125.552 50.6888 119.552 43.8056 117.789 34.7826C112.71 8.78469 151.038 4.67628 161.696 15.6598C172.355 26.6433 180.381 59.5245 171.755 64.2691C168.314 66.1612 159.843 65.9894 150.579 63.4499L164.917 96.3986L135.268 104.229L132.997 55.6322Z" fill="#1D1B1A"/>
<path fill-rule="evenodd" clip-rule="evenodd" d="M143.319 31.024C148.607 45.9808 153.681 52.8187 158.541 51.5376C165.832 49.6159 170.799 43.5108 173.998 42.6676C176.33 42.0529 176.578 45.0114 175.602 47.5107C174.797 49.5726 169.039 52.8731 169.768 55.5487C170.497 58.2243 174.84 54.861 175.272 56.4478C175.987 59.0726 178.194 63.7805 173.481 65.0225C168.713 66.2795 154.582 68.2034 150.375 61.9783C147.66 57.9608 144.189 49.0675 139.963 35.2984C139.665 35.3414 139.366 35.402 139.068 35.4806C134.982 36.5576 132.541 40.633 133.617 44.5833C134.164 46.5886 135.511 48.1762 137.24 49.1125C136.164 51.8998 134.911 54.8458 133.398 57.9433C123.834 55.3298 113.886 42.9217 118.291 27.3219C118.725 20.1342 122.817 15.2774 128.339 12.0678C132.64 8.83897 137.598 7.29595 142.153 7.35136C150.643 5.85131 158.725 6.34479 161.222 7.2446C163.292 14.8445 162.383 17.5008 149.319 20.7313C146.567 23.2061 144.875 26.6645 143.319 31.024Z" fill="#313133"/>
<path fill-rule="evenodd" clip-rule="evenodd" d="M149.851 204.9L212.378 359.226L254.315 489.695H270.875L206.762 204.9L149.851 204.9Z" fill="#1D1B1A"/>
<path fill-rule="evenodd" clip-rule="evenodd" d="M137.26 204.9C136.594 259.131 126.884 332.144 125.332 335.525C124.298 337.779 88.5947 366.438 18.2219 421.503L29.6278 433.405C112.661 386.194 156.099 359.44 159.941 353.143C165.705 343.698 184.469 256.782 199.534 204.9H137.26Z" fill="#1D1B1A"/>
<path fill-rule="evenodd" clip-rule="evenodd" d="M16.6373 417.511C12.8036 418.84 10.1625 420.1 8.71384 421.29C6.95193 422.737 4.62674 425.136 1.73827 428.487C3.45043 430.485 18.8379 448.439 47.9008 482.349C53.8347 479.859 55.6982 476.951 53.4911 473.626C51.284 470.3 49.4778 467.515 48.0725 465.27L38.0353 430.855C37.8421 430.193 37.1368 429.81 36.4599 430C36.4483 430.004 36.4368 430.007 36.4253 430.01L31.0523 431.682C27.3271 429.985 24.7165 428.264 23.2206 426.519C22.0052 425.101 20.9127 422.661 19.9431 419.2L19.9432 419.2C19.5711 417.871 18.1687 417.091 16.8109 417.458C16.7524 417.474 16.6945 417.492 16.6373 417.511Z" fill="#424040"/>
<path fill-rule="evenodd" clip-rule="evenodd" d="M247.534 483.795C246.109 487.519 245.396 490.306 245.396 492.155C245.396 494.404 245.779 497.686 246.544 502C249.209 502 273.16 502 318.397 502C320.264 495.957 319.186 492.695 315.163 492.213C311.14 491.731 307.798 491.296 305.137 490.908L271.741 476.333C271.099 476.053 270.345 476.335 270.059 476.964C270.054 476.975 270.049 476.986 270.045 476.997L267.898 482.095C264.174 483.796 261.148 484.646 258.819 484.646C256.927 484.646 254.315 483.898 250.982 482.402L250.982 482.402C249.702 481.828 248.19 482.378 247.604 483.63C247.578 483.684 247.555 483.739 247.534 483.795Z" fill="#424040"/>
<path fill-rule="evenodd" clip-rule="evenodd" d="M191.891 476.257L270.626 467.924L212.274 204.9H141.754L191.891 476.257Z" fill="#282D2E"/>
<path fill-rule="evenodd" clip-rule="evenodd" d="M34.5081 402.3L86.1536 461.912C140.551 403.977 172.264 366.174 181.295 348.504C190.325 330.833 198.443 282.965 205.648 204.9H126.255C122.319 273.578 119.666 309.516 118.296 312.712C116.926 315.908 88.9963 345.771 34.5081 402.3Z" fill="#383838"/>
<path fill-rule="evenodd" clip-rule="evenodd" d="M247.494 176.362L292.65 197.958C304.021 198.917 313.728 200.882 321.774 203.851C323.768 205.075 326.4 207.798 319.166 208.504C311.932 209.211 304.354 210.27 303.792 212.805C303.231 215.34 308.057 217.416 306.637 220.952C305.69 223.308 298.464 219.066 284.959 208.223L242.446 199.144L247.494 176.362ZM93.9205 204.042L120.173 199.587C113.065 253.166 109.144 281.62 108.409 284.951C106.756 292.444 114.809 302.021 118.462 307.285C110.567 312.491 109.012 298.558 99.0855 305.311C90.0248 311.476 83.9706 320.846 71.3592 316C69.8087 315.404 67.7086 312.512 70.9742 309.401C79.1098 301.648 90.4933 288.576 91.6575 284.721C93.245 279.465 93.9994 252.571 93.9205 204.042Z" fill="#1D1B1A"/>
<path fill-rule="evenodd" clip-rule="evenodd" d="M149.095 83.954L159.638 80.257C206.015 107.077 234.21 169.176 289.796 195.014L280.464 211.397C192.877 215.978 157.435 140.414 149.095 83.954Z" fill="#3F3F3F"/>
<path fill-rule="evenodd" clip-rule="evenodd" d="M125.544 224.738C169.123 217.168 201.179 211.6 221.712 208.033C226.106 207.27 224.175 201.25 222.983 198.25C209.227 163.63 173.683 129.909 164.538 78.8143L136.043 79.4077C119.514 119.236 119.478 164.744 125.544 224.738Z" fill="#5D5F61"/>
<path fill-rule="evenodd" clip-rule="evenodd" d="M107.804 120.619C103.572 120.194 99.9113 118.124 96.8206 114.41C83.4972 98.3985 85.4083 87.9771 95.6709 82.8781C105.933 77.7792 116.785 82.7258 134.054 79.7266C134.993 79.5635 135.863 79.4712 136.665 79.4499L145.438 78.4226C185.045 156.126 201.715 209.663 195.45 239.033L119.736 252.183C117.068 263.122 114.306 272.415 111.448 280.063L90.8171 283.646C77.9609 223.011 83.6231 168.669 107.804 120.619Z" fill="black"/>
<path fill-rule="evenodd" clip-rule="evenodd" d="M128.766 207.221C134.61 226.156 140.993 239.525 147.915 247.331L119.822 252.21C122.933 239.452 125.915 224.456 128.766 207.221Z" fill="black" fill-opacity="0.1"/>
</svg>
