<svg width="308" height="412" viewBox="0 0 308 412" fill="none" xmlns="http://www.w3.org/2000/svg">
<path fill-rule="evenodd" clip-rule="evenodd" d="M204.556 61.5442C210.57 54.9513 214.64 46.8716 213.96 37.818C212 11.7322 173.121 17.4708 165.559 30.6366C157.996 43.8025 158.895 77.1988 168.669 79.5519C172.567 80.4903 180.87 78.1916 189.322 73.4339L184.017 108.485H215.339L204.556 61.5442Z" fill="#30363A"/>
<path fill-rule="evenodd" clip-rule="evenodd" d="M227.615 29.1346C228.627 28.1983 229.179 26.8617 229.656 25.5927C230.152 24.2744 230.634 22.9425 230.963 21.5703C231.621 18.8286 231.627 15.6757 229.533 13.5468C227.853 11.8396 225.333 11.0739 223.008 10.9075C221.458 10.7965 219.867 10.9992 218.381 11.4553C216.908 11.9077 215.637 12.8093 214.209 13.369C214.154 10.4145 213.612 7.32299 212.008 4.80026C210.463 2.37299 208.001 1.01089 205.197 0.650534C202.319 0.280718 199.477 0.909733 196.901 2.21106C196.256 2.53697 195.617 2.87841 195.005 3.26484C194.493 3.58844 193.961 3.97815 193.36 4.10975C192.69 4.25663 192.358 3.89531 191.923 3.43889C191.412 2.90376 190.837 2.43242 190.229 2.01457C187.538 0.167311 184.007 -0.592213 180.89 0.515052C179.454 1.0252 178.057 1.89158 177.083 3.08545C176.214 4.14966 175.594 5.83778 174.396 6.57924C173.887 6.89399 173.528 6.47699 173.064 6.16879C172.369 5.7057 171.705 5.1947 171.001 4.74423C170.012 4.11133 168.941 3.63793 167.794 3.39013C166.115 3.02735 163.795 3.11238 163.315 5.16608C163.135 5.93749 163.273 6.76251 163.332 7.53974C163.411 8.60698 163.495 9.67385 163.594 10.7395C163.669 11.5486 163.765 12.3301 163.928 13.1247C164.015 13.5482 164.288 14.3379 164.094 14.762C163.851 15.2922 162.729 14.9908 162.25 15.0092C161.303 15.0457 160.353 15.2007 159.478 15.5784C158.8 15.8712 158.087 16.3018 157.8 17.0278C157.624 17.4738 157.671 17.9319 157.754 18.3908C157.854 18.9414 157.74 19.2335 157.665 19.7892C156.394 19.2045 151.989 17.9056 151.435 20.0333C151.25 20.7418 151.671 21.5423 151.991 22.1398C152.554 23.1877 153.291 24.1456 154.044 25.059C155.616 26.9646 157.493 28.6082 159.512 30.0139C157.147 30.9962 156.529 33.8937 158.577 35.62C159.482 36.3822 160.698 36.5519 161.839 36.5032C162.256 36.4853 162.858 36.3354 163.187 36.4033C163.363 36.4398 163.553 36.5798 163.798 36.5955C165.408 36.6984 167.225 36.3361 168.799 36.0025C171.603 35.4079 174.258 34.167 176.426 32.277C176.983 31.7922 177.442 31.5131 178.191 31.5203C178.847 31.5265 179.49 31.6945 180.146 31.71C181.88 31.7513 183.443 30.9596 185.054 30.4326C185.152 32.4643 185.772 34.702 186.661 36.5298C187.387 38.0204 188.903 38.237 190.392 38.3678C195.153 38.7862 199.932 38.3193 204.699 38.3254C200.084 39.2998 195.315 39.7014 190.741 40.8479C188.673 41.3661 190.252 42.6677 191.136 43.5699C192.592 45.0558 193.674 46.8967 194.425 48.8361C196.683 46.0875 200.673 44.2763 204.209 45.1208C208.115 46.0536 210.866 50.9876 208.368 54.5348C206.918 56.5939 204.299 57.3889 202.12 58.2735C203.82 59.9243 204.231 62.3624 205.254 64.4161C205.759 65.4289 206.467 66.574 207.596 66.9269C208.013 67.0576 208.503 67.0687 208.832 67.3866C209.24 67.7802 209.337 68.2203 209.858 68.5585C211.938 69.9087 215.186 69.8047 217.029 68.0427C218.695 66.4492 218.262 63.9275 216.87 62.3119C219.086 61.4493 223.122 60.3399 222.242 57.1157C227.043 56.8179 238.701 49.5451 232.256 44.2306C235.793 42.3638 239.042 37.8016 236.77 33.7799C235.021 30.6831 230.953 29.2988 227.615 29.1346Z" fill="#777B7D"/>
<path fill-rule="evenodd" clip-rule="evenodd" d="M271.95 260.852H171.126L157.915 412H308L271.95 260.852Z" fill="#30363A"/>
<path fill-rule="evenodd" clip-rule="evenodd" d="M271.95 260.852H240.941L222.382 412H308L271.95 260.852Z" fill="black" fill-opacity="0.1"/>
<path fill-rule="evenodd" clip-rule="evenodd" d="M56.1796 234.957C45.4298 228.928 27.3944 236.674 27.4068 245.297C27.4438 271.095 52.6514 392.681 53.9676 400.367C55.2837 408.053 69.3827 410.084 70.2037 400.393C71.5101 384.972 73.9372 331.591 71.5088 306.882C70.5064 296.683 69.4268 286.97 68.3641 278.304C81.5914 300.614 102.048 332.557 129.734 374.132L144.764 367.719C132.962 331.399 123.284 305.759 115.73 290.797C102.797 265.179 90.6703 243.24 85.5665 235.513C77.5381 223.357 63.5635 227.599 56.1796 234.957Z" fill="#342D2D"/>
<path fill-rule="evenodd" clip-rule="evenodd" d="M143.69 347.549L92.1033 233.411C79.745 214.843 45.0957 237.189 49.3101 247.958C58.8782 272.407 107.539 351.558 110.39 358.842L143.69 347.549Z" fill="black"/>
<path fill-rule="evenodd" clip-rule="evenodd" d="M146.555 360.521C149.768 362.992 151.859 365.01 152.826 366.575C154.003 368.479 155.38 371.439 156.959 375.458C154.595 376.733 133.345 388.191 93.2116 409.833C88.3931 405.611 87.6424 402.334 90.9594 400.001C94.2763 397.669 97.0136 395.702 99.1712 394.1L121.174 365.786C121.598 365.241 122.414 365.12 122.997 365.516C123.007 365.522 123.017 365.529 123.027 365.536L127.599 368.824C131.793 368.483 134.923 367.755 136.988 366.641C138.667 365.736 140.593 363.853 142.768 360.992L142.768 360.992C143.602 359.894 145.232 359.636 146.407 360.415C146.458 360.449 146.507 360.484 146.555 360.521Z" fill="#342D2D"/>
<path fill-rule="evenodd" clip-rule="evenodd" d="M73.5048 394.206C74.9649 397.846 75.6949 400.57 75.6949 402.377C75.6949 404.575 75.3028 407.783 74.5187 412C71.7886 412 47.2522 412 0.909575 412C-1.00327 406.094 0.100936 402.905 4.22218 402.434C8.34343 401.963 11.767 401.538 14.4929 401.158L48.7058 386.913C49.3641 386.639 50.1357 386.915 50.4292 387.53C50.4342 387.54 50.4391 387.551 50.4438 387.562L52.6429 392.544C56.4581 394.207 59.5584 395.038 61.9437 395.038C63.8816 395.038 66.558 394.307 69.9728 392.845L69.9728 392.845C71.2832 392.284 72.8325 392.821 73.4333 394.045C73.4591 394.098 73.483 394.152 73.5048 394.206Z" fill="#342D2D"/>
<path fill-rule="evenodd" clip-rule="evenodd" d="M23.7912 254.066C23.7912 286.45 40.2571 361.987 40.2676 369.118L75.6949 369.143C70.5095 301.742 68.6707 267.678 70.1787 266.952C72.4407 265.863 162.906 275.388 190.038 275.388C229.163 275.388 245.348 252.344 246.661 209.657H169.157C153.376 211.234 71.0634 226.74 40.494 232.071C27.4068 234.353 23.7912 245.145 23.7912 254.066Z" fill="#3A3C3D"/>
<path fill-rule="evenodd" clip-rule="evenodd" d="M157.083 133.717L111.783 110.545C104.25 102.19 96.8283 95.7013 89.5171 91.0786C87.283 90.2075 83.3762 89.6802 87.0298 95.737C90.6834 101.794 94.2349 108.318 92.3735 110.184C90.5121 112.05 85.8706 109.443 83.65 112.543C82.1696 114.61 90.0993 117.875 107.439 122.339L140.354 150.487L157.083 133.717ZM86.1356 153.269L66.2376 143.059C63.4456 133.137 60.1082 128.144 56.2252 128.082C53.2423 126.786 58.437 139.324 52.7824 138.237C47.1277 137.149 33.3263 127.562 30.9482 129.509C27.43 132.389 30.5671 141.231 34.2632 145.63C41.1713 153.851 46.891 156.662 61.0279 160.344C68.4194 162.269 76.4109 166.127 85.0025 171.919L86.1356 153.269Z" fill="#30363A"/>
<path fill-rule="evenodd" clip-rule="evenodd" d="M179.144 128.555C163.277 128.399 142.119 125.269 119.543 111.884L110.677 130.351C126.249 144.785 148.145 156.645 167.291 156.143C182.379 155.747 190.09 138.702 179.144 128.555Z" fill="black"/>
<path fill-rule="evenodd" clip-rule="evenodd" d="M157.779 158.17C140.935 162.094 112.688 157.467 73.0379 144.289C63.2031 163.293 58.6567 176.841 59.3987 184.933C93.4124 201.528 122.565 208.926 146.583 209.415C145.82 222.725 147.554 235.391 153.381 246.963C165.361 270.755 235.509 248.721 259.095 253.058C273.865 208.257 245.306 190.049 245.283 161.383C245.258 129.99 218.27 81.6686 214.299 81.6686H178.087C176.089 105.644 166.032 132.067 157.779 158.17Z" fill="black"/>
</svg>
